<svg width="140" height="43" viewBox="0 0 140 43" fill="none" xmlns="http://www.w3.org/2000/svg">
<rect x="0.5" y="0.5" width="139" height="42" rx="2.5" stroke="url(#paint0_linear_21_99)"/>
<path d="M29.0783 28.2143V16.4783H33.1103C33.9743 16.4783 34.7543 16.5983 35.4503 16.8383C36.1583 17.0663 36.7223 17.4563 37.1423 18.0083C37.5623 18.5603 37.7723 19.3103 37.7723 20.2583C37.7723 21.1703 37.5623 21.9203 37.1423 22.5083C36.7223 23.0963 36.1643 23.5343 35.4683 23.8223C34.7723 24.0983 34.0103 24.2363 33.1823 24.2363H31.7243V28.2143H29.0783ZM31.7243 22.1303H33.0203C34.4603 22.1303 35.1803 21.5063 35.1803 20.2583C35.1803 19.6463 34.9883 19.2143 34.6043 18.9623C34.2203 18.7103 33.6683 18.5843 32.9483 18.5843H31.7243V22.1303ZM43.0323 28.4303C42.2763 28.4303 41.5623 28.2503 40.8903 27.8903C40.2303 27.5183 39.6963 26.9843 39.2883 26.2883C38.8803 25.5803 38.6763 24.7343 38.6763 23.7503C38.6763 22.7543 38.8803 21.9083 39.2883 21.2123C39.6963 20.5163 40.2303 19.9883 40.8903 19.6283C41.5623 19.2563 42.2763 19.0703 43.0323 19.0703C43.7883 19.0703 44.4963 19.2563 45.1563 19.6283C45.8163 19.9883 46.3503 20.5163 46.7583 21.2123C47.1663 21.9083 47.3703 22.7543 47.3703 23.7503C47.3703 24.7343 47.1663 25.5803 46.7583 26.2883C46.3503 26.9843 45.8163 27.5183 45.1563 27.8903C44.4963 28.2503 43.7883 28.4303 43.0323 28.4303ZM43.0323 26.2883C43.5723 26.2883 43.9803 26.0603 44.2563 25.6043C44.5323 25.1363 44.6703 24.5183 44.6703 23.7503C44.6703 22.9703 44.5323 22.3523 44.2563 21.8963C43.9803 21.4403 43.5723 21.2123 43.0323 21.2123C42.4803 21.2123 42.0663 21.4403 41.7903 21.8963C41.5263 22.3523 41.3943 22.9703 41.3943 23.7503C41.3943 24.5183 41.5263 25.1363 41.7903 25.6043C42.0663 26.0603 42.4803 26.2883 43.0323 26.2883ZM53.0706 28.4303C52.2426 28.4303 51.4926 28.2503 50.8206 27.8903C50.1606 27.5183 49.6326 26.9843 49.2366 26.2883C48.8526 25.5803 48.6606 24.7343 48.6606 23.7503C48.6606 22.7543 48.8766 21.9083 49.3086 21.2123C49.7406 20.5163 50.3106 19.9883 51.0186 19.6283C51.7266 19.2563 52.4886 19.0703 53.3046 19.0703C53.8566 19.0703 54.3426 19.1603 54.7626 19.3403C55.1946 19.5203 55.5786 19.7483 55.9146 20.0243L54.6726 21.7343C54.2526 21.3863 53.8506 21.2123 53.4666 21.2123C52.8306 21.2123 52.3206 21.4403 51.9366 21.8963C51.5646 22.3523 51.3786 22.9703 51.3786 23.7503C51.3786 24.5183 51.5646 25.1363 51.9366 25.6043C52.3206 26.0603 52.8006 26.2883 53.3766 26.2883C53.6646 26.2883 53.9466 26.2283 54.2226 26.1083C54.4986 25.9763 54.7506 25.8203 54.9786 25.6403L56.0226 27.3683C55.5786 27.7523 55.0986 28.0283 54.5826 28.1963C54.0666 28.3523 53.5626 28.4303 53.0706 28.4303ZM57.585 28.2143V15.5963H60.159V22.8323H60.231L63.057 19.2863H65.937L62.805 22.9583L66.171 28.2143H63.309L61.293 24.7403L60.159 26.0183V28.2143H57.585ZM70.9325 28.4303C70.0805 28.4303 69.3125 28.2443 68.6285 27.8723C67.9445 27.5003 67.4045 26.9663 67.0085 26.2703C66.6125 25.5743 66.4145 24.7343 66.4145 23.7503C66.4145 22.7783 66.6125 21.9443 67.0085 21.2483C67.4165 20.5523 67.9445 20.0183 68.5925 19.6463C69.2405 19.2623 69.9185 19.0703 70.6265 19.0703C71.4785 19.0703 72.1805 19.2623 72.7325 19.6463C73.2965 20.0183 73.7165 20.5283 73.9925 21.1763C74.2805 21.8123 74.4245 22.5383 74.4245 23.3543C74.4245 23.5823 74.4125 23.8103 74.3885 24.0383C74.3645 24.2543 74.3405 24.4163 74.3165 24.5243H68.9705C69.0905 25.1723 69.3605 25.6523 69.7805 25.9643C70.2005 26.2643 70.7045 26.4143 71.2925 26.4143C71.9285 26.4143 72.5705 26.2163 73.2185 25.8203L74.1005 27.4223C73.6445 27.7343 73.1345 27.9803 72.5705 28.1603C72.0065 28.3403 71.4605 28.4303 70.9325 28.4303ZM68.9525 22.7783H72.1745C72.1745 22.2863 72.0545 21.8843 71.8145 21.5723C71.5865 21.2483 71.2085 21.0863 70.6805 21.0863C70.2725 21.0863 69.9065 21.2303 69.5825 21.5183C69.2585 21.7943 69.0485 22.2143 68.9525 22.7783ZM79.5152 28.4303C78.4112 28.4303 77.6192 28.1123 77.1392 27.4763C76.6712 26.8403 76.4372 26.0063 76.4372 24.9743V21.3563H75.2132V19.3943L76.5812 19.2863L76.8872 16.9103H79.0832V19.2863H81.2252V21.3563H79.0832V24.9383C79.0832 25.4423 79.1852 25.8083 79.3892 26.0363C79.6052 26.2523 79.8872 26.3603 80.2352 26.3603C80.3792 26.3603 80.5232 26.3423 80.6672 26.3063C80.8232 26.2703 80.9612 26.2283 81.0812 26.1803L81.4952 28.1063C81.2672 28.1783 80.9852 28.2503 80.6492 28.3223C80.3252 28.3943 79.9472 28.4303 79.5152 28.4303ZM81.9214 24.5963V22.7243H86.3494V24.5963H81.9214ZM88.294 28.2143V19.2863H90.94V28.2143H88.294ZM89.608 17.9723C89.164 17.9723 88.804 17.8463 88.528 17.5943C88.252 17.3423 88.114 17.0063 88.114 16.5863C88.114 16.1663 88.252 15.8303 88.528 15.5783C88.804 15.3263 89.164 15.2003 89.608 15.2003C90.052 15.2003 90.412 15.3263 90.688 15.5783C90.964 15.8303 91.102 16.1663 91.102 16.5863C91.102 17.0063 90.964 17.3423 90.688 17.5943C90.412 17.8463 90.052 17.9723 89.608 17.9723ZM92.7826 28.2143V26.7923L96.5266 21.3563H93.1966V19.2863H99.8206V20.6903L96.0766 26.1443H99.9466V28.2143H92.7826ZM105.368 28.4303C104.516 28.4303 103.748 28.2443 103.064 27.8723C102.38 27.5003 101.84 26.9663 101.444 26.2703C101.048 25.5743 100.85 24.7343 100.85 23.7503C100.85 22.7783 101.048 21.9443 101.444 21.2483C101.852 20.5523 102.38 20.0183 103.028 19.6463C103.676 19.2623 104.354 19.0703 105.062 19.0703C105.914 19.0703 106.616 19.2623 107.168 19.6463C107.732 20.0183 108.152 20.5283 108.428 21.1763C108.716 21.8123 108.86 22.5383 108.86 23.3543C108.86 23.5823 108.848 23.8103 108.824 24.0383C108.8 24.2543 108.776 24.4163 108.752 24.5243H103.406C103.526 25.1723 103.796 25.6523 104.216 25.9643C104.636 26.2643 105.14 26.4143 105.728 26.4143C106.364 26.4143 107.006 26.2163 107.654 25.8203L108.536 27.4223C108.08 27.7343 107.57 27.9803 107.006 28.1603C106.442 28.3403 105.896 28.4303 105.368 28.4303ZM103.388 22.7783H106.61C106.61 22.2863 106.49 21.8843 106.25 21.5723C106.022 21.2483 105.644 21.0863 105.116 21.0863C104.708 21.0863 104.342 21.2303 104.018 21.5183C103.694 21.7943 103.484 22.2143 103.388 22.7783Z" fill="url(#paint1_linear_21_99)"/>
<defs>
<linearGradient id="paint0_linear_21_99" x1="168" y1="19.6571" x2="84.9303" y2="113.03" gradientUnits="userSpaceOnUse">
<stop stop-color="#FFE29F"/>
<stop offset="0.564362" stop-color="#FFA99F"/>
<stop offset="0.973958" stop-color="#FF719A"/>
</linearGradient>
<linearGradient id="paint1_linear_21_99" x1="129.231" y1="20.7449" x2="85.6598" y2="75.999" gradientUnits="userSpaceOnUse">
<stop stop-color="#FFE29F"/>
<stop offset="0.564362" stop-color="#FFA99F"/>
<stop offset="0.973958" stop-color="#FF719A"/>
</linearGradient>
</defs>
</svg>
